<svg xmlns="http://www.w3.org/2000/svg" xmlns:xlink="http://www.w3.org/1999/xlink" version="1.1" id="Your_Icon" x="0px" y="0px" width="100px" height="100px" viewBox="0 0 100 100" enable-background="new 0 0 100 100" xml:space="preserve">
<path fill-rule="evenodd" clip-rule="evenodd" d="M5,78.067c0-7.466,0-49.264,0-56.729C5,10.333,11.833,5.333,20.933,5.405  c7.466,0,50.264,0,57.729,0c10.837,0,15.933,7.095,15.933,14.933c0,7.466,0,52.264,0,59.729C94.595,90.333,88.667,95,78.662,95  c-7.466,0-50.263,0-57.729,0C11,95,5,88.667,5,78.067z M23.399,12.872c-7.419,0-10.933,2.466-10.933,9.932  c0,7.466,0,34.865,0,34.865h7.466l7.466-14.933l17.976,20.389l11.889-42.787L73,61l3.5-3.331h10.629c0,0,0-26.399,0-33.865  c0-7.466-2.467-10.932-9.933-10.932H23.399z M71.5,71.875l-13.125-29.25L48.25,77.25L28.399,54.669l-4,10.466H12.466  c0,0,0,4,0,11.467c0,7.466,3.466,10.933,10.933,10.933c7.466,0,44.598,0,52.428,0c7.835,0,11.302-3.467,11.302-10.933  c0-7.467,0-11.467,0-11.467L78.125,65L71.5,71.875z"/>
</svg>