<?xml version="1.0" encoding="utf-8"?>
<!-- Generator: Adobe Illustrator 18.1.0, SVG Export Plug-In . SVG Version: 6.00 Build 0)  -->
<svg version="1.1" id="Layer_1" xmlns="http://www.w3.org/2000/svg" xmlns:xlink="http://www.w3.org/1999/xlink" x="0px" y="0px"
	 viewBox="0 0 100 100" enable-background="new 0 0 100 100" xml:space="preserve">
<g display="none">
	<path display="inline" d="M96.3,53.6c-1.9-0.8-4-0.5-5.6,0.8l-16,13.9c-1.1,1-1.8,2.4-1.8,3.9c0,1.5,0.7,2.9,1.8,3.9l16,13.9
		c1,0.8,2.2,1.3,3.4,1.3c0.7,0,1.5-0.2,2.2-0.5c1.9-0.8,3-2.7,3-4.7V58.3C99.3,56.3,98.1,54.4,96.3,53.6z"/>
	<path display="inline" d="M64.2,46.9c10.5,0,19.1-8.6,19.1-19.1S74.8,8.7,64.2,8.7c-10.5,0-19.1,8.6-19.1,19.1S53.7,46.9,64.2,46.9
		z"/>
	<path display="inline" d="M19.8,46.9c10.5,0,19.1-8.6,19.1-19.1S30.3,8.7,19.8,8.7C9.2,8.7,0.7,17.2,0.7,27.8S9.2,46.9,19.8,46.9z"
		/>
	<g display="inline">
		<path d="M61.5,53.1H5.9c-2.9,0-5.2,2.3-5.2,5.2v27.8c0,2.9,2.3,5.2,5.2,5.2h55.6c2.9,0,5.2-2.3,5.2-5.2V58.3
			C66.7,55.5,64.3,53.1,61.5,53.1z"/>
	</g>
</g>
<g display="none">
	<path display="inline" d="M99.4,8.1H0.6V80h7.8l-0.9,8.3l-0.1,0.3c-0.3,1.4,0.6,2.9,2.1,3.2l0.3,0.1c1.4,0.3,2.9-0.6,3.2-2.1
		l0.1-0.3l3-9.5h68l3,9.5l0.1,0.3c0.3,1.4,1.7,2.4,3.2,2.1l0.3-0.1c1.5-0.3,2.4-1.7,2.1-3.2l-0.1-0.3L91.6,80h7.8
		C99.4,80,99.4,8.1,99.4,8.1z M8.6,16.1h82.8V72H8.6V16.1z"/>
	<rect x="16.6" y="24.1" display="inline" width="52.2" height="39.9"/>
	<path display="inline" d="M80.9,54.7c-3.2,0-5.8,2.6-5.8,5.8c0,3.2,2.6,5.8,5.8,5.8c3.2,0,5.8-2.6,5.8-5.8
		C86.7,57.3,84.1,54.7,80.9,54.7z"/>
	<path display="inline" d="M80.9,38.8c-3.2,0-5.8,2.6-5.8,5.8c0,3.2,2.6,5.8,5.8,5.8c3.2,0,5.8-2.6,5.8-5.8
		C86.7,41.4,84.1,38.8,80.9,38.8z"/>
	<path display="inline" d="M80.9,22.8c-3.2,0-5.8,2.6-5.8,5.8c0,3.2,2.6,5.8,5.8,5.8c3.2,0,5.8-2.6,5.8-5.8
		C86.7,25.4,84.1,22.8,80.9,22.8z"/>
</g>
<g id="Your_Icon" display="none">
	<g display="inline">
		<path d="M70.8,55.7c8.6-9.5,13.5-18.5,16.1-26.5c0,0,0,0,0,0c0,0,1.1-2.8,1.9-7.2c0.1-0.3,0.1-0.6,0.2-0.9
			c0.1-0.4,0.1-0.7,0.2-1.1c1-6.4,0.7-11.4,0.2-14.4c0.1-0.1,0.3-0.3,0.4-0.5c0.5-0.7,0.8-1.3,0.5-1.5l-0.3-0.2l0.5-2.4l-2.6,0.8
			l-0.3-0.3c-0.2-0.2-0.8,0.2-1.4,0.9c-0.1,0.1-0.2,0.3-0.3,0.4c0,0-9.5,0.3-20.4,7.3h0c-15.3,9.5-22.6,24.3-22.6,24.3
			c-27.6-3.7-33.8,22-33.8,22C63.2,53.4,56,94.1,56,94.1C79.6,83.7,70.8,55.7,70.8,55.7z M69.1,41.6c-2.4,2.7-6.6,3.4-9.9,1.5
			c-3.8-2.2-5.1-7-3-10.7c0.3-0.5,0.6-0.9,0.9-1.3c2.4-2.7,6.6-3.4,9.9-1.5c3.8,2.2,5.1,7,3,10.7C69.7,40.8,69.4,41.2,69.1,41.6z"/>
		<path d="M30.6,97.4C43.9,92.6,48.8,75,48.8,75C34.6,81.4,30.6,97.4,30.6,97.4z"/>
		<path d="M16.5,98.9c17.6-6.5,24-30.4,24-30.4C21.7,77,16.5,98.9,16.5,98.9z"/>
		<path d="M14,84.4C27.3,79.5,32.1,62,32.1,62C18,68.3,14,84.4,14,84.4z"/>
	</g>
</g>
<g id="Captions">
</g>
<g id="Your_Icon_1_">
	<path d="M36,20.2v-3.9c0-2,1.6-3.7,3.6-3.7h20.8c2,0,3.6,1.6,3.6,3.7v3.9h6.7v-3.9c0-5.8-4.6-10.4-10.3-10.4H39.6
		c-5.7,0-10.3,4.7-10.3,10.4v3.9L36,20.2L36,20.2z"/>
	<path d="M59.7,59.5c0,0.8-0.6,1.4-1.4,1.4H41.7c-0.8,0-1.4-0.6-1.4-1.4v-8.2c0-0.8,0.6-1.4,1.4-1.4h16.6c0.8,0,1.4,0.6,1.4,1.4
		L59.7,59.5L59.7,59.5z"/>
	<path d="M58.3,64.4H41.7c-2.7,0-4.9-2.2-4.9-4.9v-2.6c-12.6-0.9-24.9-3-36.7-6.1v34.5c0,4.9,3.9,8.8,8.7,8.8h82.5
		c4.8,0,8.7-3.9,8.7-8.8V50.8c-11.8,3.2-24.1,5.3-36.7,6.1v2.6C63.2,62.2,61,64.4,58.3,64.4z"/>
	<path d="M41.7,46.4h16.6c2.7,0,4.9,2.2,4.9,4.9v1.6c12.6-0.9,24.9-3,36.7-6.1V32.6c0-4.9-3.9-8.8-8.7-8.8H8.8
		c-4.8,0-8.7,3.9-8.7,8.8v14.2c11.8,3.2,24.1,5.3,36.7,6.1v-1.6C36.8,48.6,39,46.4,41.7,46.4z"/>
</g>
</svg>
