<?xml version="1.0" encoding="utf-8"?>
<!-- Generator: Adobe Illustrator 18.1.0, SVG Export Plug-In . SVG Version: 6.00 Build 0)  -->
<svg version="1.1" id="Layer_1" xmlns="http://www.w3.org/2000/svg" xmlns:xlink="http://www.w3.org/1999/xlink" x="0px" y="0px"
	 viewBox="0 0 100 100" enable-background="new 0 0 100 100" xml:space="preserve">
<g id="XMLID_13_">
	<g>
		<g id="XMLID_10_">
			<g>
				<path d="M84.3,95.6L62.4,73.8c-6,3.9-13.1,6.2-20.8,6.2c-21,0-38-17-38-38.1c0-21,17-38,38-38c21,0,38,17,38,38
					c0,7.3-2.1,14.2-5.6,20l22,22c1.2,1.1,0.2,4-2.1,6.3l-3.3,3.3C88.2,95.8,85.4,96.8,84.3,95.6z M67,41.9
					c0-14-11.4-25.4-25.4-25.4c-14,0-25.4,11.4-25.4,25.4s11.4,25.4,25.4,25.4C55.6,67.4,67,56,67,41.9z"/>
			</g>
		</g>
	</g>
</g>
</svg>
