<?xml version="1.0" encoding="utf-8"?>
<!-- Generator: Adobe Illustrator 18.1.0, SVG Export Plug-In . SVG Version: 6.00 Build 0)  -->
<svg version="1.1" id="Layer_1" xmlns="http://www.w3.org/2000/svg" xmlns:xlink="http://www.w3.org/1999/xlink" x="0px" y="0px"
	 viewBox="0 0 100 100" enable-background="new 0 0 100 100" xml:space="preserve">
<g id="Your_Icon">
	<path d="M49.9,0c-27.6,0-50,22.4-50,50c0,27.6,22.4,50,50,50c27.6,0,50-22.4,50-50C100,22.4,77.6,0,49.9,0z M96.9,48.5H85.3
		C85.1,42,83.1,36,79.7,30.8c0.9-1.5,1.4-3.1,1.4-4.9c0-5.3-4.3-9.6-9.6-9.6c-2.2,0-4.2,0.8-5.9,2c-4.3-2.1-9.1-3.4-14.2-3.6V3.1
		C76.2,3.9,96.1,23.8,96.9,48.5z M48.4,51.6V63c-6-0.7-10.7-5.4-11.4-11.4H48.4z M37,48.5c0.7-6,5.4-10.7,11.4-11.4v11.4H37z
		 M51.5,51.6h11.4c-0.7,6-5.4,10.7-11.4,11.4V51.6z M51.5,48.5V37.1c6,0.7,10.7,5.4,11.4,11.4H51.5z M48.4,34.1
		c-7.7,0.7-13.8,6.8-14.5,14.5H17.6c0.8-16.7,14.2-30.1,30.9-30.8V34.1z M34,51.6c0.7,7.7,6.8,13.8,14.5,14.5v16.4
		c-16.7-0.8-30-14.1-30.9-30.8C17.6,51.6,34,51.6,34,51.6z M51.5,66c7.7-0.7,13.8-6.8,14.5-14.5h16.4c-0.8,16.7-14.1,30-30.8,30.8
		V66z M65.9,48.5c-0.7-7.7-6.8-13.8-14.5-14.5V17.7c4.3,0.2,8.3,1.2,12,2.9c-1,1.5-1.6,3.3-1.6,5.3c0,5.3,4.3,9.6,9.6,9.6
		c2.4,0,4.5-0.9,6.2-2.3c2.7,4.5,4.4,9.7,4.7,15.3H65.9z M48.4,3.1v11.6c-18.4,0.8-33.1,15.5-33.9,33.9H3
		C3.8,23.8,23.7,3.9,48.4,3.1z M3,51.6h11.6c0.8,18.4,15.5,33.1,33.9,33.9V97C23.7,96.2,3.8,76.3,3,51.6z M51.5,97V85.4
		c18.4-0.8,33.1-15.5,33.9-33.9h11.6C96.1,76.3,76.2,96.2,51.5,97z"/>
</g>
</svg>
