<?xml version="1.0" encoding="utf-8"?>
<!-- Generator: Adobe Illustrator 18.1.0, SVG Export Plug-In . SVG Version: 6.00 Build 0)  -->
<svg version="1.1" id="Layer_1" xmlns="http://www.w3.org/2000/svg" xmlns:xlink="http://www.w3.org/1999/xlink" x="0px" y="0px"
	 viewBox="0 0 100 100" enable-background="new 0 0 100 100" xml:space="preserve">
<g display="none">
	<path display="inline" d="M96.3,53.6c-1.9-0.8-4-0.5-5.6,0.8l-16,13.9c-1.1,1-1.8,2.4-1.8,3.9c0,1.5,0.7,2.9,1.8,3.9l16,13.9
		c1,0.8,2.2,1.3,3.4,1.3c0.7,0,1.5-0.2,2.2-0.5c1.9-0.8,3-2.7,3-4.7V58.3C99.3,56.3,98.1,54.4,96.3,53.6z"/>
	<path display="inline" d="M64.2,46.9c10.5,0,19.1-8.6,19.1-19.1S74.8,8.7,64.2,8.7c-10.5,0-19.1,8.6-19.1,19.1S53.7,46.9,64.2,46.9
		z"/>
	<path display="inline" d="M19.8,46.9c10.5,0,19.1-8.6,19.1-19.1S30.3,8.7,19.8,8.7C9.2,8.7,0.7,17.2,0.7,27.8S9.2,46.9,19.8,46.9z"
		/>
	<g display="inline">
		<path d="M61.5,53.1H5.9c-2.9,0-5.2,2.3-5.2,5.2v27.8c0,2.9,2.3,5.2,5.2,5.2h55.6c2.9,0,5.2-2.3,5.2-5.2V58.3
			C66.7,55.5,64.3,53.1,61.5,53.1z"/>
	</g>
</g>
<g>
	<path d="M99.4,8.1H0.6V80h7.8l-0.9,8.3l-0.1,0.3c-0.3,1.4,0.6,2.9,2.1,3.2l0.3,0.1c1.4,0.3,2.9-0.6,3.2-2.1l0.1-0.3l3-9.5h68l3,9.5
		l0.1,0.3c0.3,1.4,1.7,2.4,3.2,2.1l0.3-0.1c1.5-0.3,2.4-1.7,2.1-3.2l-0.1-0.3L91.6,80h7.8C99.4,80,99.4,8.1,99.4,8.1z M8.6,16.1
		h82.8V72H8.6V16.1z"/>
	<rect x="16.6" y="24.1" width="52.2" height="39.9"/>
	<path d="M80.9,54.7c-3.2,0-5.8,2.6-5.8,5.8c0,3.2,2.6,5.8,5.8,5.8c3.2,0,5.8-2.6,5.8-5.8C86.7,57.3,84.1,54.7,80.9,54.7z"/>
	<path d="M80.9,38.8c-3.2,0-5.8,2.6-5.8,5.8c0,3.2,2.6,5.8,5.8,5.8c3.2,0,5.8-2.6,5.8-5.8C86.7,41.4,84.1,38.8,80.9,38.8z"/>
	<path d="M80.9,22.8c-3.2,0-5.8,2.6-5.8,5.8c0,3.2,2.6,5.8,5.8,5.8c3.2,0,5.8-2.6,5.8-5.8C86.7,25.4,84.1,22.8,80.9,22.8z"/>
</g>
</svg>
